<svg xmlns="http://www.w3.org/2000/svg" viewBox="0 0 100 100">
  <g transform="translate(10, 10)">
    <!-- Top Bun -->
    <path d="M 5 35 C 5 10 25 5 40 5 C 55 5 75 10 75 35 Z" fill="#F59E0B" />
    <!-- Seeds -->
    <ellipse cx="25" cy="20" rx="1.5" ry="2.5" fill="#FEF3C7" transform="rotate(-30 25 20)" />
    <ellipse cx="55" cy="20" rx="1.5" ry="2.5" fill="#FEF3C7" transform="rotate(30 55 20)" />
    <ellipse cx="40" cy="15" rx="1.5" ry="2.5" fill="#FEF3C7" />
    <ellipse cx="20" cy="28" rx="1.5" ry="2.5" fill="#FEF3C7" transform="rotate(-45 20 28)" />
    <ellipse cx="60" cy="28" rx="1.5" ry="2.5" fill="#FEF3C7" transform="rotate(45 60 28)" />
    <!-- Lettuce -->
    <path d="M 0 35 Q 10 42 20 35 Q 30 42 40 35 Q 50 42 60 35 Q 70 42 80 35 Q 85 45 75 42 Q 65 35 55 42 Q 45 35 35 42 Q 25 35 15 42 Q 5 35 0 35 Z" fill="#10B981" />
    <!-- Cheese -->
    <path d="M 5 42 L 75 42 L 75 45 L 65 55 L 55 45 L 45 55 L 35 45 L 25 55 L 15 45 L 5 45 Z" fill="#FBBF24" />
    <!-- Patty -->
    <rect x="5" y="46" width="70" height="14" rx="5" fill="#78350F" />
    <!-- Tomato -->
    <rect x="5" y="60" width="70" height="6" rx="3" fill="#EF4444" />
    <!-- Bottom Bun -->
    <path d="M 5 66 C 5 80 15 85 40 85 C 65 85 75 80 75 66 Z" fill="#F59E0B" />
  </g>
</svg>
